<?xml version="1.0" encoding="utf-8"?>
<!-- Generator: Adobe Illustrator 25.2.1, SVG Export Plug-In . SVG Version: 6.00 Build 0)  -->
<svg version="1.1" id="Layer_1" xmlns="http://www.w3.org/2000/svg" xmlns:xlink="http://www.w3.org/1999/xlink" x="0px" y="0px"
	 viewBox="0 0 530 109.5" style="enable-background:new 0 0 530 109.5;" xml:space="preserve">
<style type="text/css">
	.st0{fill:#F9F9F9;}
	.st1{enable-background:new    ;}
</style>
<path class="st0" d="M59.3,61.9c0,5.6-0.6,10.2-4.9,14.2c-3.9,3.6-8.6,4.9-13.3,5.3c-4.1,0.4-9.5-0.3-13-2.7
	c-4.8-3.4-5.7-8.5-5.7-15.1V27.8l14,1.2v32.5c0,1.7-0.1,4.1,0.8,5.7c1.1,1.6,3.2,2.2,4.9,2.1c1.6-0.1,3.5-0.7,4.7-1.9
	c1.8-1.8,1.6-4.4,1.6-6.7V30l10.8,0.9L59.3,61.9L59.3,61.9z"/>
<path class="st0" d="M76.6,43l-13-0.6V31.3l13,1.1V43z M76.6,77.5l-13,1.1V46.1l13,0.4V77.5z"/>
<path class="st0" d="M102.5,75.6l-13.1,1.1V43.8l-9.5-0.4V32.6l31.9,2.6v9.5l-9.3-0.4V75.6z"/>
<polygon class="st0" points="11.3,13.4 150.2,13.4 150.2,96.8 11.3,96.8 122.4,82.9 122.4,27.3 "/>
<g class="st1">
	<path class="st0" d="M171.6,34.7v8.9h-11.2v-8.9H171.6z M171.6,45.7v28.6h-11.2V45.7H171.6z"/>
	<path class="st0" d="M205.4,74.2h-11.2v-18c0-1.5-0.2-2.4-0.7-2.8c-0.5-0.4-1-0.6-1.7-0.6c-2,0-3.1,1.4-3.1,4.3v17.2h-11.2V45.7
		h10.4v4c1.5-3.1,4.3-4.6,8.2-4.6c2.1,0,3.8,0.4,5.3,1.2c1.4,0.8,2.5,1.8,3.1,3.1c0.6,1.3,0.9,3.5,0.9,6.6V74.2z"/>
	<path class="st0" d="M244.8,35.9l-11.9,38.3h-12l-12.4-38.3h12.4l6.1,20.9c0.4,1.2,0.8,2.5,1.1,3.7l7.1-24.5H244.8z"/>
	<path class="st0" d="M259,35.9v38.3h-11V35.9H259z"/>
	<path class="st0" d="M293.7,74.2H283c-0.3-1.2-0.4-2.5-0.4-4c-2,3.1-5.1,4.6-9.2,4.6c-3.4,0-5.9-0.9-7.6-2.6
		c-1.7-1.7-2.5-3.7-2.5-5.9c0-3,1.4-5.5,4.1-7.3c2.7-1.9,7.6-3,14.6-3.4V55c0-1.3-0.3-2.1-0.9-2.5c-0.6-0.4-1.4-0.6-2.5-0.6
		c-2.6,0-4,1-4.3,3.1l-10.2-1c1.5-6,6.4-9,14.9-9c2.3,0,4.4,0.2,6.3,0.7s3.5,1.2,4.6,2.1c1.1,1,1.9,2,2.3,3.1
		c0.4,1.1,0.6,3.2,0.6,6.3v11.4C292.8,70.8,293.1,72.7,293.7,74.2z M282.1,60.8c-4.8,0.5-7.2,2-7.2,4.6c0,1.7,0.9,2.6,2.8,2.6
		c1.2,0,2.2-0.4,3.1-1.1c0.8-0.7,1.3-2.3,1.3-4.7V60.8z"/>
	<path class="st0" d="M327.4,74.2h-10.7c-0.3-1.2-0.4-2.5-0.4-4c-2,3.1-5.1,4.6-9.2,4.6c-3.4,0-5.9-0.9-7.6-2.6
		c-1.7-1.7-2.5-3.7-2.5-5.9c0-3,1.4-5.5,4.1-7.3c2.7-1.9,7.6-3,14.6-3.4V55c0-1.3-0.3-2.1-0.9-2.5c-0.6-0.4-1.4-0.6-2.5-0.6
		c-2.6,0-4,1-4.3,3.1l-10.2-1c1.5-6,6.4-9,14.9-9c2.3,0,4.4,0.2,6.3,0.7s3.5,1.2,4.6,2.1c1.1,1,1.9,2,2.3,3.1s0.6,3.2,0.6,6.3v11.4
		C326.5,70.8,326.8,72.7,327.4,74.2z M315.8,60.8c-4.8,0.5-7.2,2-7.2,4.6c0,1.7,0.9,2.6,2.8,2.6c1.2,0,2.2-0.4,3.1-1.1
		c0.8-0.7,1.3-2.3,1.3-4.7V60.8z"/>
	<path class="st0" d="M360.2,74.2H349v-18c0-1.5-0.2-2.4-0.7-2.8c-0.5-0.4-1-0.6-1.7-0.6c-2,0-3.1,1.4-3.1,4.3v17.2h-11.2V45.7h10.4
		v4c1.5-3.1,4.3-4.6,8.2-4.6c2.1,0,3.8,0.4,5.3,1.2c1.4,0.8,2.5,1.8,3.1,3.1c0.6,1.3,0.9,3.5,0.9,6.6V74.2z"/>
	<path class="st0" d="M394,74.2h-10.5v-3.8c-1.6,2.9-4.1,4.4-7.7,4.4c-3.3,0-6-1.3-8-3.9c-2-2.6-3.1-6.3-3.1-11.2
		c0-4.6,1-8.2,3.1-10.9c2.1-2.7,4.8-4,8.2-4c2.8,0,5.2,1.1,7,3.2V35.9h11V74.2z M383,55.9c0-2.6-1.1-3.8-3.2-3.8
		c-1.5,0-2.4,0.8-2.9,2.4c-0.5,1.6-0.7,3.6-0.7,6c0,4.6,1.2,6.9,3.5,6.9c0.9,0,1.7-0.4,2.3-1.1c0.6-0.7,0.9-1.8,0.9-3.3V55.9z"/>
	<path class="st0" d="M418.8,64l10.4,0.7c-0.6,2.8-2.2,5.2-4.7,7.2s-6,3-10.3,3c-4.8,0-8.6-1.4-11.5-4.2c-2.9-2.8-4.3-6.2-4.3-10.3
		c0-4.3,1.4-7.9,4.2-10.8c2.8-2.9,6.6-4.4,11.3-4.4c4.6,0,8.3,1.4,11.1,4.2c2.8,2.8,4.2,6.5,4.2,11.3c0,0.4,0,0.9,0,1.6h-19.1
		c0,1.8,0.4,3.1,1,4s1.7,1.3,3.4,1.3C416.9,67.5,418.3,66.3,418.8,64z M418,56.6c0-1.9-0.4-3.2-1.2-3.9c-0.8-0.7-1.7-1-2.8-1
		c-2.6,0-4,1.6-4,4.9H418z"/>
	<path class="st0" d="M444.3,74.2h-10.7V45.7h9.3v5.9c1.1-4.3,3.5-6.4,7.4-6.4c0.4,0,0.9,0,1.6,0.1v10c-0.8-0.2-1.5-0.3-2.1-0.3
		c-3.7,0-5.6,2.1-5.6,6.2V74.2z"/>
	<path class="st0" d="M474.4,64l10.4,0.7c-0.6,2.8-2.2,5.2-4.7,7.2c-2.5,2-6,3-10.3,3c-4.8,0-8.6-1.4-11.5-4.2
		c-2.9-2.8-4.3-6.2-4.3-10.3c0-4.3,1.4-7.9,4.2-10.8c2.8-2.9,6.6-4.4,11.3-4.4c4.6,0,8.3,1.4,11.1,4.2c2.8,2.8,4.2,6.5,4.2,11.3
		c0,0.4,0,0.9,0,1.6h-19.1c0,1.8,0.4,3.1,1,4c0.6,0.9,1.7,1.3,3.4,1.3C472.5,67.5,474,66.3,474.4,64z M473.7,56.6
		c0-1.9-0.4-3.2-1.2-3.9c-0.8-0.7-1.7-1-2.8-1c-2.6,0-4,1.6-4,4.9H473.7z"/>
	<path class="st0" d="M517.1,74.2h-11.2v-18c0-1.5-0.2-2.4-0.7-2.8c-0.5-0.4-1-0.6-1.7-0.6c-2,0-3.1,1.4-3.1,4.3v17.2h-11.2V45.7
		h10.4v4c1.5-3.1,4.3-4.6,8.2-4.6c2.1,0,3.8,0.4,5.3,1.2c1.4,0.8,2.5,1.8,3.1,3.1c0.6,1.3,0.9,3.5,0.9,6.6V74.2z"/>
</g>
</svg>
