<?xml version="1.0" encoding="utf-8"?>
<!-- Generator: Adobe Illustrator 27.3.1, SVG Export Plug-In . SVG Version: 6.00 Build 0)  -->
<svg version="1.1" id="Laag_1" xmlns="http://www.w3.org/2000/svg" xmlns:xlink="http://www.w3.org/1999/xlink" x="0px" y="0px"
	 viewBox="0 0 1019.6 637.7" style="enable-background:new 0 0 1019.6 637.7;" xml:space="preserve">
<style type="text/css">
	.st0{fill:#009E6E;stroke:#40404A;stroke-width:1.5;stroke-linecap:round;stroke-linejoin:round;stroke-miterlimit:10;}
	.st1{fill:#40404A;stroke:#40404A;stroke-width:1.5;stroke-linecap:round;stroke-linejoin:round;stroke-miterlimit:10;}
	.st2{fill:#FF9400;stroke:#40404A;stroke-width:1.5;stroke-linecap:round;stroke-linejoin:round;stroke-miterlimit:10;}
	.st3{fill:#FF666C;stroke:#40404A;stroke-width:1.5;stroke-linecap:round;stroke-linejoin:round;stroke-miterlimit:10;}
	.st4{fill:#A393FF;stroke:#40404A;stroke-width:1.5;stroke-linecap:round;stroke-linejoin:round;stroke-miterlimit:10;}
	.st5{fill:#4061BA;stroke:#40404A;stroke-width:1.5;stroke-linecap:round;stroke-linejoin:round;stroke-miterlimit:10;}
	.st6{fill:#FFECEA;stroke:#40404A;stroke-width:1.5;stroke-linecap:round;stroke-linejoin:round;stroke-miterlimit:10;}
	.st7{fill:none;stroke:#40404A;stroke-width:1.5;stroke-linecap:round;stroke-linejoin:round;stroke-miterlimit:10;}
	.st8{fill:#40404A;}
	.st9{fill:none;stroke:#FF9400;stroke-width:1.5;stroke-linecap:round;stroke-linejoin:round;stroke-miterlimit:10;}
	.st10{fill:none;stroke:#FFEDEB;stroke-width:1.5;stroke-linecap:round;stroke-linejoin:round;stroke-miterlimit:10;}
	.st11{fill:#4660B2;stroke:#40404A;stroke-width:1.5;stroke-linecap:round;stroke-linejoin:round;stroke-miterlimit:10;}
	.st12{fill:#FDC5C6;stroke:#40404A;stroke-width:1.5;stroke-linecap:round;stroke-linejoin:round;stroke-miterlimit:10;}
	.st13{fill:#009971;stroke:#40404A;stroke-width:1.5;stroke-linecap:round;stroke-linejoin:round;stroke-miterlimit:10;}
	.st14{fill:#EC003E;stroke:#40404A;stroke-width:1.5;stroke-linecap:round;stroke-linejoin:round;stroke-miterlimit:10;}
	.st15{fill:#FFECEA;stroke:#40404A;stroke-width:1.5;stroke-linecap:round;stroke-linejoin:round;stroke-miterlimit:9.9999;}
	.st16{fill:#A091F8;stroke:#40404A;stroke-width:1.5;stroke-linecap:round;stroke-linejoin:round;stroke-miterlimit:10;}
	.st17{fill:#FFEDEB;stroke:#40404A;stroke-width:1.5;stroke-linecap:round;stroke-linejoin:round;stroke-miterlimit:10;}
	.st18{fill:#A390FF;stroke:#40404A;stroke-width:1.5;stroke-linecap:round;stroke-linejoin:round;stroke-miterlimit:10;}
	.st19{fill:#FFECEA;}
	.st20{fill:#FF002C;stroke:#40404A;stroke-width:1.5;stroke-linecap:round;stroke-linejoin:round;stroke-miterlimit:10;}
	.st21{fill:#F87676;stroke:#40404A;stroke-width:1.5;stroke-linecap:round;stroke-linejoin:round;stroke-miterlimit:10;}
	.st22{fill:#FFCAEB;}
</style>
<g id="character_3">
	<polygon class="st0" points="761.3,514.8 756.8,555.7 686.3,555.7 688.7,530.2 690.7,508.3 711.5,510.2 	"/>
	<polygon class="st1" points="711.5,510.2 688.7,530.2 690.7,508.3 	"/>
	<polygon class="st2" points="756.8,555.7 755,571.6 670.4,571.6 686.3,555.7 	"/>
	<polygon class="st0" points="812.7,514.8 817.2,555.7 887.7,555.7 885.3,530.2 883.2,508.3 862.5,510.2 	"/>
	<polygon class="st1" points="862.5,510.2 885.3,530.2 883.2,508.3 	"/>
	<polygon class="st2" points="817.2,555.7 819,571.6 903.6,571.6 887.7,555.7 	"/>
	<path class="st0" d="M934.5,242.4l2.2-10l9.6-31.8l32.5,0.6l4.5,12.7l32.8,7.7c0.5,0.1,1,0.2,1.4,0.5c1.5,0.9,2.4,2.6,2,4.4
		c-0.4,2-2.2,3.5-4.3,3.4l-34.5-4l-3.9,15.6l-28.3,0.4L934.5,242.4z"/>
	<polygon class="st1" points="934.5,242.4 936.7,232.4 948.4,241.7 	"/>
	<path class="st0" d="M681.5,320.8l-31.9,42.9c-1.3,1.7-3.7,2.2-5.6,1.1l0,0c-1.9-1.1-2.5-3.5-1.6-5.4l4.2-8.6l-11.8,18.9
		c-1.1,1.8-3.5,2.4-5.4,1.4l0,0c-1.8-1-2.6-3.2-1.7-5.1l10-18.6L625,363.9c-1.7,2.2-4.9,2.7-7.3,1.1l0,0c-2.3-1.6-3-4.8-1.5-7.2
		l9.4-12.4l-13,13.1c-1.8,1.6-4.5,1.7-6.3,0.2l0,0c-1.9-1.6-2.3-4.3-0.9-6.3l38.8-56.9l33,7.7L681.5,320.8z"/>
	<path class="st0" d="M644.2,295.4l-21.5,22c-3.4,3.5-5.1,8.2-4.7,13l0.8,10c0.3,3.4,3.6,5.8,6.9,5l0,0c2.4-0.6,4.1-2.7,4.3-5.1
		l0.9-15.6"/>
	<polygon class="st3" points="803.6,234.4 803.5,235.3 787,234.8 	"/>
	<polygon class="st3" points="787,234.8 770.5,235.3 770.4,234.4 	"/>
	<path class="st4" d="M896.8,514.8h-84.1l-30.3-200.7l-21.1,200.7h-84.1c22.9-27.9,53.4-278.4,53.4-278.4l40-1.1l16.5-0.5l16.5,0.5
		l30.1,0.8C833.6,236.2,873.9,486.9,896.8,514.8z"/>
	<path class="st3" d="M786.5,132.7l26.4-2.1c8.1-0.6,16.1,2.5,21.7,8.5l57,59.2l59.1,2.5l-2.3,41l-53,2.1
		c-7.3,0.3-14.5-2.1-20.2-6.7l-41.6-33.6l8.1,45.7l-115.9,6.6l-12,27.4c-1.3,3-3.1,5.7-5.3,8.1l-27,29.4l-37.4-25.4l33-36.9
		l18.5-90.3c3.4-15.9,15.5-28.6,31.3-32.8l9.1-2.4L786.5,132.7z"/>
	<path class="st0" d="M967.5,256.8L967.5,256.8c2.1,2,5.3,2,7.2,0l7.7-7.8c2-2,1.9-5.2-0.1-7.2l-0.1-0.1c-2-2-5.2-1.9-7.2,0.1
		l-7.7,7.8C965.4,251.6,965.5,254.8,967.5,256.8z"/>
	<path class="st0" d="M968,245.7L968,245.7c1.4,2.4,4.5,3.2,6.9,1.8l9.7-5.6c2.4-1.4,3.2-4.5,1.8-6.9l0,0c-1.4-2.4-4.5-3.2-6.9-1.8
		l-9.7,5.6C967.4,240.2,966.6,243.3,968,245.7z"/>
	<path class="st0" d="M970,234L970,234c1,2.6,3.9,4,6.5,3l10.5-3.9c2.6-1,4-3.9,3-6.5l0,0c-1-2.6-3.9-4-6.5-3l-10.5,3.9
		C970.4,228.5,969,231.4,970,234z"/>
	<path class="st0" d="M974.8,215.4l15.5,13.2c1.8,1.5,4.4,1.4,6-0.2l0,0c1.4-1.4,1.7-3.6,0.7-5.3l-8.6-14.5
		c-2.1-3.6-5.5-6.2-9.5-7.3l0,0"/>
	<polygon class="st5" points="798.6,251.7 761,253.8 749.4,132.7 786.5,132.7 787.1,131.5 	"/>
	<path class="st6" d="M740.9,70.2l4.1-8.6c3.4-7.1,10.7-11.3,18.5-10.6l0,0c6.7,0.6,12.5,4.6,15.4,10.7l8.4,17.8l-27.6,2.3
		L740.9,70.2z"/>
	<path class="st0" d="M795.1,84c0,2.9-1.9,5.7-4.8,6.6l0,0l-12.6,4.2l8.8,37.1c-9,13.2-26.2,10.9-34.9,8.6c-0.7-0.2-1.3-0.5-1.9-0.9
		l2-25.3c-6.6-0.2-10.4-3-12.5-5.3c-1.5-1.7-2.1-3.2-2.1-3.2s-7.5-12.6,3.9-35.5c0.7-1.3,2-2.2,3.5-2.2l4.6-0.1l4-10.8l1.8,10.8
		l5.8,0.1c6.9,0.1,13.1,4.3,15.8,10.7l10.6-1.7c3.5-0.5,6.9,1.6,7.8,5C795,82.7,795.1,83.3,795.1,84z"/>
	<path class="st7" d="M743.2,88.6c-1.1,0-2-0.9-2-2s0.9-2,2-2h0.2v-5.8"/>
	<line class="st7" x1="726.8" y1="78" x2="776.3" y2="78.8"/>
	<path class="st1" d="M739.6,78.2c0,6.9-1.9,10.4-6.9,10.4c-5.5,0-6.9-3.7-6.9-10.6L739.6,78.2z"/>
	<path class="st1" d="M763.1,78.8c0,7.3-3.4,10.4-8.1,10.4c-5.1,0-8.1-3.1-8.1-10.4H763.1z"/>
	<line class="st7" x1="778.5" y1="85.8" x2="788.3" y2="83.6"/>
	<path class="st7" d="M751.6,114.3c0,0,9.8-0.2,14.4-8.8"/>
	<circle class="st6" cx="743.5" cy="50.9" r="7.5"/>
	<circle class="st6" cx="782.9" cy="53.7" r="7.5"/>
	<polygon class="st8" points="750.8,125.2 761.4,111.3 751.6,115.3 	"/>
	<path class="st9" d="M749.7,139.6l12,26.9c3.4,7.7,14.7,6.7,16.7-1.5l8.1-33.1"/>
	<path class="st6" d="M820,198.9l-8.6-12.3l1.6,11.6l-12.8-1.2L777.7,94.8l12.6-4.2l0,0c4.1,13,23.6,64.3,54.8,110.6L820,198.9z"/>
	<circle class="st8" cx="748.3" cy="93.2" r="2.6"/>
	<polyline class="st7" points="715.4,192.7 715.4,256.2 725.8,255.9 	"/>
	<line class="st7" x1="677.2" y1="258.5" x2="689.1" y2="265.3"/>
	<line class="st7" x1="891.6" y1="198.2" x2="886.4" y2="207.1"/>
	<path class="st6" d="M751.6,114.3l-2,25.3l-3.3,63.3l-15,3.2l-2.2-13.7l-7.2,15.8l-32.8,7c31.3-43.8,46.4-89.7,50.1-106.1
		C741.2,111.4,745.1,114.1,751.6,114.3z"/>
	<line class="st7" x1="876.6" y1="68.7" x2="896.8" y2="35.7"/>
	<line class="st7" x1="896.8" y1="78" x2="923.2" y2="54.3"/>
	<line class="st7" x1="906.2" y1="90.6" x2="941.5" y2="83.3"/>
	<line class="st10" x1="732.7" y1="292.8" x2="758.8" y2="292.8"/>
	<line class="st10" x1="805.7" y1="292.8" x2="831.8" y2="292.8"/>
	
		<ellipse transform="matrix(0.3612 -0.9325 0.9325 0.3612 416.7144 752.4327)" class="st8" cx="757.5" cy="72.1" rx="2.2" ry="4.6"/>
	<ellipse transform="matrix(0.9229 -0.3851 0.3851 0.9229 29.6483 290.9471)" class="st8" cx="741.2" cy="71.5" rx="4.6" ry="2.2"/>
</g>
<g id="character_2">
	<rect x="451.7" y="280.6" class="st6" width="63.7" height="247.9"/>
	<rect x="364.9" y="287.6" class="st6" width="63.7" height="240.9"/>
	<polygon class="st1" points="420,358.6 364.9,378 364.9,337.4 	"/>
	<rect x="364.9" y="501.6" class="st2" width="63.7" height="26.9"/>
	<path class="st2" d="M520.2,57.4l22.9-38.8c0.9-1.6,2.8-2.4,4.6-2l0,0c2.2,0.5,3.6,2.6,3.3,4.8l-1.7,10.9L573,12.7
		c1.5-1.2,3.6-1.2,5,0.1l0,0c1.7,1.5,1.7,4.2,0.1,5.7l-9.2,8.7l13.5-6.6c1.3-0.6,2.9-0.4,3.9,0.7l0,0c1.5,1.6,1.2,4.2-0.7,5.2
		L574,33.1l14-2.7c1.5-0.3,2.9,0.9,2.9,2.4l0,0c0,1.1-0.7,2.1-1.8,2.4l-14.5,5.1l11.2-0.7c1.6,0,2.9,1.4,2.8,3l0,0
		c-0.1,1.2-0.9,2.2-2.1,2.6l-21.7,6c-2.4,0.7-4.3,2.5-5,4.9l-2.5,8l-22.1,10L520.2,57.4z"/>
	<path class="st11" d="M445.7,93.4l0.8-9.9l8.8-3.8c8.4-3.7,18.2-2.5,25.5,3L500,97.2l20.2-39.8l37.1,6.8l-14,74.7
		c-2.7,14.7-18.3,23.1-32.1,17.3l-41-17.1l18.3,66.3l5.5,11.3h-93l21.8,14.2l-20.5,59l-53.7-47.1c-13.7-12-18.9-31-13.3-48.4
		l21.4-66.2c3.2-10,10.7-18,20.4-22l25.2-10.3L445.7,93.4"/>
	<path class="st12" d="M445.7,93.4"/>
	<path class="st13" d="M552.1,229.9c0,28.4-18.9,52.3-44.8,60c-7.6,2.2-13.4,8.3-15,16.1c-7.2,34.5-37.8,60.3-74.5,60.3
		c-40.9-0.1-74.7-33.2-75.7-74c-1-42.7,33.3-77.7,75.9-77.7h0.2c6.1,0,11.5-3.6,13.9-9.2c9.6-22.3,31.7-37.8,57.5-37.8
		C524.1,167.3,552.1,195.3,552.1,229.9z"/>
	<circle class="st14" cx="469.3" cy="247.8" r="33.7"/>
	
		<rect x="458.2" y="163" transform="matrix(0.7953 -0.6062 0.6062 0.7953 7.0346 376.4791)" class="st15" width="205.6" height="29.6"/>
	<circle class="st16" cx="469.3" cy="247.8" r="22.2"/>
	<path class="st14" d="M640,127.8l-9.6-12.5c-3-3.9-2.7-9.1,0.5-12L664.6,73c1.6-1.4,3.8-1.9,6-1.4l17.5,4.2
		c3.4,0.8,5.8,4.1,5.7,7.5l-0.6,17.9c-0.1,2.3-1.2,4.3-3,5.4l-38.5,24C648,132.9,642.9,131.7,640,127.8z"/>
	<path class="st7" d="M388.5,297.3l207.9-158.5c10.1-7.7,13.7-21.5,8.2-32.9c-2.3-4.6-5.8-8.3-11.3-8.8c-17-1.8-20.5,14.2-10.6,15.2
		s15.9-23.4-9.2-27.3"/>
	<line class="st7" x1="390.5" y1="301.7" x2="632.2" y2="117.6"/>
	<line class="st7" x1="393.2" y1="305.8" x2="635.1" y2="121.4"/>
	<path class="st7" d="M396.3,309.4L584.5,166c15.2-11.6,35.1-15.6,53.4-10.1c5.2,1.6,11.4,4,13.9,9.2c2.2,4.5,0.5,10.5-3.6,13.2
		c-1.8,1.2-4.1,1.7-6,0.9c-2.5-1.2-3.4-4.8-1.9-7.2c2.8-4.4,8.4-2.4,11.3,0.6c3,3.1,5.2,7.6,5.9,11.8"/>
	<path class="st7" d="M400.1,312.6l153.4-116.9c15.4-11.7,34.6-17.6,53.8-15.6c12,1.2,24.7,4.9,28.1,16c3.2,10.6-4.3,21.3-15.7,20.5
		c-1.4-0.1-2.9-0.4-4.1-1.2c-1.8-1.3-2.7-3.6-2.5-5.8c0.4-3.8,3.9-7,7.9-5.8c9.5,2.8,17.6,17.5,10.4,25.9"/>
	<path class="st17" d="M669.1,79.1l5.1,1.3c2.7,0.7,3.4,4.2,1.2,5.9l-34.7,25.5c-1.5,1.1-3.5,0.8-4.6-0.7l0,0
		c-1-1.4-0.8-3.3,0.4-4.4L666.1,80C666.9,79.1,668,78.8,669.1,79.1z"/>
	<path class="st17" d="M685.3,99.5l0.3-5.2c0.2-2.8-3-4.5-5.3-2.9l-34.7,25.5c-1.5,1.1-1.8,3.1-0.7,4.6l0,0c1,1.4,2.9,1.8,4.4,0.9
		l34.4-20.2C684.6,101.6,685.2,100.6,685.3,99.5z"/>
	<path class="st6" d="M408.6,323.6L408.6,323.6c2.3-1.8,2.8-5.1,1-7.4l-22.1-29c-1.8-2.3-5.1-2.8-7.4-1l0,0c-2.3,1.8-2.8,5.1-1,7.4
		l22.1,29C403,324.9,406.3,325.4,408.6,323.6z"/>
	<path class="st2" d="M402.6,275.5l57.7,20.5c1.9,0.7,4-0.3,4.7-2.3l0,0c0.6-1.7-0.2-3.6-1.9-4.4l-1.7-0.8l9.2,1
		c1.7,0.2,3.4-0.9,3.9-2.6l0,0c0.5-1.8-0.4-3.7-2.2-4.4l-2.8-1h4.8c1.4,0,2.7-0.9,3.2-2.3l0,0c0.5-1.5-0.2-3.2-1.6-4l-3.3-1.7
		l2.6-0.4c1.3-0.2,2.4-1.2,2.7-2.6l0,0c0.3-1.4-0.3-2.8-1.5-3.6L422,233.4L402.6,275.5z"/>
	<path class="st11" d="M335.3,194.4c-5.6,17.3-0.4,36.3,13.3,48.4l53.7,47.1l20.5-58.8L401,216.8l-15.9-11.3l-10.4,4.2"/>
	<line class="st7" x1="472.3" y1="273.5" x2="454" y2="266.8"/>
	<line class="st7" x1="469.3" y1="281.5" x2="451.3" y2="276.6"/>
	<line class="st7" x1="461.4" y1="288.5" x2="448.4" y2="283.6"/>
	<line class="st7" x1="408.8" y1="140.6" x2="385.1" y2="205.4"/>
	<polygon class="st17" points="435.7,344.5 430.4,344.6 428.9,349.7 426.2,345.2 421.1,346.4 423.7,341.8 420,338 425.3,337.9 
		426.8,332.9 429.5,337.4 434.6,336.1 432.1,340.7 	"/>
	<path class="st18" d="M400.1,341.1l4.6-3.2c3.4-1.7,6.8,2.3,4.7,5.4l-9.2,9.6l0,0l-9.4-9.6c-2.1-3.1,1.3-7,4.7-5.4L400.1,341.1
		L400.1,341.1z"/>
	<circle class="st6" cx="380.9" cy="326.8" r="4.7"/>
	<line class="st7" x1="470.2" y1="139.1" x2="466.9" y2="124.7"/>
	<line class="st7" x1="500" y1="97.2" x2="508.4" y2="103.8"/>
	<polygon class="st16" points="428.6,571.3 428.6,528.6 364.9,528.6 319,571.3 	"/>
	<rect x="451.7" y="501.6" class="st2" width="63.7" height="26.9"/>
	<polygon class="st16" points="451.7,571.3 451.7,528.6 515.4,528.6 561.2,571.3 	"/>
	<path class="st2" d="M478.4,27.8c0,3.1-2,5.9-5.1,6.9l-9.9,2.9c0,0.3,0,0.7,0,1c0.3,30.7-17.7,28.8-17.7,28.8v26
		c-18,21.7-43.4,2.5-43.4,2.5L415,43.5l-11.6-2.8c-1.9-0.5-3.5-1.5-4.6-3c-1.1-1.4-1.8-3.2-1.8-5.2c0-5.2,4.6-9.1,9.7-8.3l5.8,0.9
		l0.4,0.1v-0.3c0-6.4,1.6-11,3.9-14.3c0.4-0.6,0.9-1.2,1.4-1.7c2.6-2.8,5.8-4.3,8.8-5.2c6.6-1.9,13.7-0.7,19.7,2.9
		c4.9,3,10.7,8.1,14,16.7l8.5-2.5c3.8-1.1,7.8,1.1,8.9,4.9C478.3,26.5,478.4,27.2,478.4,27.8z"/>
	<path class="st17" d="M425.8,20.9c0,0.6-0.1,1.1-0.2,1.7c-1,3.7-5.1,5.8-8.6,4.3l-4.3-1.7l0.4,0.1V25c0-6.4,1.6-11,3.9-14.3
		l6.5,5.2C424.9,17.1,425.8,19,425.8,20.9z"/>
	<line class="st7" x1="404.5" y1="31.8" x2="415.5" y2="34.4"/>
	<line class="st7" x1="463.5" y1="29.5" x2="472.2" y2="27.3"/>
	<path class="st7" d="M429.7,56.4c0,0,5.9,10,16.1,11"/>
	<line class="st7" x1="447.2" y1="56" x2="447.2" y2="58.7"/>
	<line class="st7" x1="455.9" y1="51" x2="455.9" y2="53.7"/>
	<line class="st7" x1="437" y1="50.6" x2="437" y2="53.3"/>
	<circle class="st8" cx="439.5" cy="30" r="1.2"/>
	<circle class="st8" cx="441.9" cy="41.5" r="1.9"/>
	<circle class="st8" cx="453.2" cy="28.7" r="1.2"/>
	<ellipse transform="matrix(0.8097 -0.5868 0.5868 0.8097 66.8799 260.5481)" class="st8" cx="435.2" cy="27.1" rx="4" ry="2"/>
	
		<ellipse transform="matrix(8.411409e-02 -0.9965 0.9965 8.411409e-02 390.924 473.7595)" class="st8" cx="453.2" cy="24.2" rx="2" ry="4"/>
	<circle class="st19" cx="430.6" cy="37.8" r="3.4"/>
	<polygon class="st8" points="436.4,63.6 445.5,80.2 445.3,68.1 	"/>
	<path class="st2" d="M458,32.6"/>
	<polyline class="st7" points="444.6,25.4 448.5,35.7 446.5,37.2 	"/>
</g>
<g id="character_1">
	<polygon class="st4" points="139.7,446.8 132.1,549.3 127.9,570.8 49.1,570.8 73.9,549.3 79.1,460.3 81.4,421.7 81.6,417.8 
		121.1,438.4 	"/>
	<polygon class="st20" points="132.1,549.3 127.9,570.8 49.1,570.8 73.9,549.3 	"/>
	<polygon class="st4" points="251.8,570.8 173,570.8 168.8,549.3 161.3,446.8 179.9,438.4 219.3,417.8 221.5,455.1 223.2,483.8 
		227.1,549.3 	"/>
	<polygon class="st20" points="168.8,549.3 173,570.8 251.8,570.8 227.1,549.3 	"/>
	<polygon class="st1" points="126.9,445.4 79.1,460.3 81.4,421.7 	"/>
	<polygon class="st1" points="223.2,483.8 178.3,457.9 221.5,455.1 	"/>
	<polygon class="st1" points="136.6,131.7 120.2,167.7 140.3,176.9 145.4,137.2 	"/>
	<path class="st4" d="M111.9,199.6L111.9,199.6c27.6,17.4,62.7,17.4,90.3,0l0,0c0,0-14.3-11.2-36-15.7l-0.6-18.3
		c9.1-2.3,15.8-7.4,18-16.8c1.7-7.1,1.5-15.8-0.8-23.4c-2.8-9.5-8.9-17.4-18.6-18.3c-18.4-1.8-21.5,12.5-21.5,12.5l-0.2-0.1l-12.2-5
		c-2.2-0.9-4.6-0.7-6.6,0.4c-0.8,0.4-1.4,1-2,1.7c-2.9,3.5-2.1,8.7,1.7,11.2L138,137l-1.5,52.5C136.6,189.6,122.3,190,111.9,199.6"
		/>
	<path class="st4" d="M296,312.5L296,312.5c-1-2.4-3.6-3.7-6.1-3.1l-18.9,4.7l5.8,12.2l16.4-7C295.9,318.3,297.1,315.2,296,312.5z"
		/>
	<path class="st4" d="M307,318.3L307,318.3c-1.1-2.8-4.1-4.3-7-3.6l-25,6.3l9.8,10.4l18.3-5.2C306.5,325.3,308.3,321.6,307,318.3z"
		/>
	<path class="st4" d="M268,301.2l13,24.1l30.6-4.1c2.2-0.3,4.3,1.2,4.9,3.4l0,0c0.5,2.2-0.7,4.4-2.9,5.2l-34.2,11.6l14.5,7.2
		c1.9,0.9,2.8,3,2.3,5.1l0,0c-0.6,2.6-3.3,4-5.8,3.2l-33.1-11.4c-5.1-1.8-9.6-4.9-13.1-9l-6.6-8L268,301.2z"/>
	<path class="st4" d="M22.1,306.4L22.1,306.4c1-2.4,3.6-3.7,6.2-3.1l18.9,4.7l-5.8,12.2l-16.4-7C22.2,312.2,21,309.1,22.1,306.4z"/>
	<path class="st4" d="M11.1,312.2L11.1,312.2c1.1-2.8,4.1-4.3,7-3.6l25,6.3l-9.8,10.4L15,320.1C11.6,319.2,9.8,315.5,11.1,312.2z"/>
	<path class="st4" d="M50.1,295.1l-13,24.1l-30.6-4.1c-2.2-0.3-4.3,1.2-4.9,3.4l0,0c-0.5,2.2,0.7,4.4,2.9,5.2l34.2,11.6l-14.5,7.2
		c-1.9,0.9-2.8,3-2.3,5.1l0,0c0.6,2.6,3.3,4,5.8,3.2l33.1-11.4c5.1-1.8,9.6-4.9,13.1-9l6.6-8L50.1,295.1z"/>
	<line class="st7" x1="128.8" y1="121.8" x2="140.4" y2="128.4"/>
	<polygon class="st2" points="173.2,110.7 173.7,82.3 165.9,94.1 160,81.7 154.6,93.7 146.9,83.4 147.8,113.2 	"/>
	<path class="st1" d="M165,124.2l2-6.4l2.4,7.2l13.3,0.3c-2.8-9.5-8.9-17.4-18.6-18.3c-18.4-1.8-21.5,12.5-21.5,12.5l-0.2-0.1
		l-0.5,3.9L165,124.2z"/>
	<path class="st21" d="M82,337.6l-32.9-41.1l57-89.8c3.5-5.6,8.4-10.2,14.2-13.4c1.6-0.9,3.2-1.6,4.5-1.8c4.3,7,13.4,19.1,33.9,20.8
		c18.4,1.5,31.8-5.7,40-14.6c4.8,2.2,9.4,6,12.5,12.2l56.8,91.3l-29.5,38.6l-25.8-31.2l46.2,149.6
		c-141.5,30.6-227.6-55.6-227.6-55.6L82,337.6z"/>
	<path class="st0" d="M-26.9,326.3"/>
	<path class="st0" d="M0,327.7"/>
	<path class="st7" d="M198.7,197.6l2.7-1.1c17.2-7.1,36.8,2.3,42.1,20.1l0,0c4.7,15.7-3.4,32.4-18.6,38.4l-21.6,8.5"/>
	<line class="st7" x1="212.7" y1="308.5" x2="195.7" y2="234.6"/>
	<path class="st7" d="M118.2,254.3l-30.6-21.2c-14.4-9.9-16.4-30.8-3.5-42.7c0.3-0.3,0.7-0.6,1.1-0.9l0.7-0.6
		c11.6-9.7,28.8-8.6,39,2.5l0,0"/>
	<polygon class="st6" points="117.4,342.5 123.2,340.7 126.7,345.7 128.1,339.8 134.2,339.3 129.7,335.1 132.3,329.6 126.5,331.4 
		123,326.4 121.6,332.3 115.5,332.8 120,337 	"/>
	<polygon class="st6" points="84.6,407.9 90.5,406.1 94,411.1 95.3,405.2 101.4,404.7 96.9,400.5 99.6,395 93.7,396.8 90.3,391.7 
		88.9,397.7 82.8,398.2 87.3,402.4 	"/>
	<polygon class="st6" points="158.6,398.2 164.4,396.4 167.9,401.4 169.2,395.5 175.3,395 170.9,390.8 173.5,385.3 167.6,387.1 
		164.2,382 162.8,388 156.7,388.5 161.2,392.7 	"/>
	<polygon class="st6" points="203,434 208.9,432.2 212.4,437.2 213.7,431.3 219.8,430.8 215.4,426.6 218,421.1 212.1,422.9 
		208.7,417.8 207.3,423.8 201.2,424.3 205.7,428.4 	"/>
	<polygon class="st6" points="161.6,290.2 167.4,288.4 170.9,293.4 172.2,287.5 178.3,287 173.9,282.8 176.5,277.3 170.6,279.1 
		167.2,274.1 165.8,280 159.7,280.5 164.2,284.7 	"/>
	<polygon class="st6" points="186.3,342.4 192.1,340.6 195.6,345.6 197,339.7 203.1,339.2 198.6,335 201.2,329.5 195.4,331.3 
		191.9,326.3 190.5,332.2 184.4,332.7 188.9,336.9 	"/>
	<polygon class="st6" points="223.7,289.7 229.5,287.9 233,292.9 234.4,287 240.4,286.5 236,282.3 238.6,276.8 232.8,278.6 
		229.3,273.6 227.9,279.5 221.8,280 226.3,284.2 	"/>
	<polygon class="st6" points="75.3,295.6 81.2,293.8 84.6,298.8 86,292.8 92.1,292.4 87.6,288.2 90.3,282.7 84.4,284.5 80.9,279.4 
		79.6,285.4 73.5,285.9 77.9,290 	"/>
	<polygon class="st6" points="132.2,235.3 138.1,233.5 141.5,238.5 142.9,232.6 149,232.1 144.5,227.9 147.2,222.4 141.3,224.2 
		137.8,219.1 136.5,225.1 130.4,225.6 134.8,229.8 	"/>
	<path class="st7" d="M165.5,165.5c0,0-9.1,0.8-14-5.2"/>
	<polyline class="st7" points="174.9,132.6 176.9,140.6 175.6,141.3 	"/>
	<polygon class="st8" points="165.3,174.7 154.5,163.8 164.9,166.4 	"/>
	<circle class="st22" cx="151.5" cy="138.8" r="4.2"/>
	<path class="st7" d="M124.8,232c0,0-20.8,87.1-42.8,105.6"/>
	<circle class="st1" cx="167" cy="142.6" r="2.3"/>
	<circle class="st1" cx="167.1" cy="132.1" r="0.9"/>
	<circle class="st1" cx="179.2" cy="131.2" r="0.9"/>
	
		<ellipse transform="matrix(0.8097 -0.5868 0.5868 0.8097 -43.367 119.5515)" class="st8" cx="162.7" cy="126.6" rx="3.5" ry="1.7"/>
</g>
</svg>
